Patient4_TMGait_0pt7_01_left_24_EMG.mot
version=1
nRows=16
nColumns=33
inDegrees=no
endheader
time	1LAddLong	2LGlutMax	3LGlutMed	4LIliopsoas	5LSemiMemb	6LBicFemLong	7LRecFem	8LVastMed	9LVastLat	10LGasMed	11LTibAnt	12lTibPost	13LPeroneusLong	14LSol	15LExtDigLong	16LFlexDigLong	17RAddLong	18RGlutMax	19RGlutMed	20RIliopsoas	21RSemiMemb	22RBicFemLong	23RRecFem	24RVastMed	25RVastLat	26RGasMed	27RTibAnt	28RTibPost	29RPeroneusLong	30RSol	31RExtDigLong	32RFlexDigLong
28.848	0.009613	0.13458	-0.079041	-0.002136	-0.001831	-0.042267	-0.006866	0.004883	0.053711	-0.012054	-0.005798	-0.017548	0.069885	-0.049438	-0.13123	0.000763	0.011749	-0.14496	-0.069122	-0.075684	0.008698	0.097351	0.053406	0.063629	0.068359	0.015869	-0.075378	-0.035706	0.90942	-0.10635	-0.000153	-0.002747
28.849	0.000153	0.15091	-0.095062	0.001526	-0.018768	-0.027618	0.002441	0.003967	0.050201	-0.024414	0.056458	-0.023346	0.054169	-0.054932	0.0383	-0.005646	0.007324	-0.11505	0.13733	-0.088196	-0.035095	-0.025482	0.09552	0.10696	0.067139	0.012665	-0.15427	-0.035095	-0.66544	0.055389	0.000763	-0.002747
28.85	-0.014343	0.14984	-0.10971	0.00351	-0.028687	0.003204	0.011292	0.005646	0.037384	-0.014038	0.039825	-0.013885	0.035858	-0.11566	0.093689	-0.002594	0.010223	-0.11505	0.20325	-0.065613	0.10803	-0.069275	0.11093	0.098114	0.052948	-0.005798	-0.012665	-0.037537	-1.0133	0.088043	0.001221	-0.008087
28.851	-0.008698	0.14587	-0.071869	0.000153	-0.055695	0.020142	0.018768	0.006409	0.031128	-0.011292	-0.042114	-0.015869	0.041199	-0.09491	0.09201	-0.002441	0.012054	-0.19333	-0.27634	0.015106	0.067749	-0.30304	0.12619	-0.050964	0.019531	-0.070801	0.017853	-0.033264	-0.58945	0.12009	0.000916	-0.00061
28.852	-0.015259	0.16968	-0.05722	0.004425	-0.032349	0.02594	0.001526	0.007172	0.022888	-0.014801	-0.034943	-0.019989	0.048676	-0.046082	0.11108	0.006866	0.022888	-0.14679	-0.36621	0.045319	-0.010834	-0.36102	0.17838	-0.070801	0.005798	-0.07431	0.031586	-0.021973	-0.15991	0.072632	0.001526	-0.006409
28.853	-0.002441	0.15808	-0.079498	0.004272	-0.014954	-0.025482	-0.011444	-0.000305	0.039978	-0.012512	-0.034943	-0.021667	0.021515	0.010681	0.091095	0	0.014801	-0.090179	-0.16266	0.066528	-0.031738	-0.16647	0.26871	-0.093079	0.012817	-0.055847	0.023956	-0.022736	0.31876	-0.043488	-0.000916	-0.006256
28.854	0.023193	0.14328	-0.023499	0.010681	0.009308	-0.085602	-0.014343	-0.002747	0.036621	0.009155	-0.032654	-0.021057	0.029144	0.006409	0.036316	-0.002136	-0.007782	-0.084839	-0.10254	0.069122	0.063934	-0.007019	0.3096	-0.11398	-0.005188	-0.062103	-0.007935	-0.019684	0.43594	-0.046997	-0.003815	-0.008392
28.855	0.024109	0.1561	0.004272	0	-0.014496	-0.068665	0.003052	0.002747	0.035858	-0.009308	0.019989	-0.020752	0.019684	-0.053711	0.032349	-0.012054	-0.010681	-0.10361	-0.20676	0.066376	0.2034	0.025177	0.092773	-0.19134	-0.043335	-0.041199	0.039825	-0.016327	-0.15198	0.040283	-0.000458	-0.011139
28.856	0.033112	0.14236	0.017853	-0.008698	-0.045471	-0.07431	-0.000153	0.001526	0.023804	-0.019836	0.03006	-0.021973	0.016632	-0.095062	0.058289	-0.018921	0.014343	-0.168	-0.24368	0.033264	-0.009918	0.085144	0.037079	-0.20676	-0.05188	-0.007935	0.036926	-0.013733	-0.17639	0.12756	-0.00061	-0.013123
28.857	0.062256	0.1474	-0.013428	-0.002747	0.046082	-0.028687	-0.007477	0.00824	0.024719	-0.052948	0.020599	-0.03067	0.038452	-0.15198	0.039368	-0.012207	0.003204	-0.14893	-0.021667	0.015106	-0.14282	0.079498	-0.038757	0.10727	0.041046	0.061035	0.012665	-0.015869	-0.13519	0.067444	0.001373	-0.010834
28.858	0.078888	0.15427	-0.017242	0.004425	0.066833	-0.019531	-0.009308	-0.010529	0.016479	-0.057526	0.001831	-0.023041	0.042267	-0.11307	0.019226	-0.01358	-0.058899	-0.12131	-0.024261	0.029144	-0.032654	0.084229	-0.26321	0.31235	0.058746	0.059052	-0.00885	-0.001984	-0.11307	0.13367	0.003815	-0.017548
28.859	-0.001678	0.15198	-0.01236	0	0.049591	-0.010986	-0.014648	0.009766	0.03479	-0.042877	0.009613	-0.018768	0.036163	-0.048065	0.036011	-0.005798	-0.035553	-0.072174	-0.16312	0.038452	0.057068	0.034943	-0.14954	0.52917	0.00351	0.064697	0.012817	0.00946	-0.61218	0.026093	0	-0.017548
28.86	0.00351	0.15732	-0.027924	0.003967	0.03006	-0.030518	-0.015106	0.006104	0.026245	-0.032349	0.007324	-0.020752	0.028687	-0.028687	0.041504	0.007782	-0.027771	-0.018158	-0.067902	-0.00885	0.11978	0.027771	0.070343	0.38742	-0.010223	0.00946	0.011749	-0.005493	-0.63873	-0.01709	-0.001221	-0.007782
28.861	0.007172	0.15091	-0.057678	-0.008392	0.014496	-0.031738	-0.024261	-0.009003	0.039215	-0.019684	0.00824	-0.027161	0.023499	0.020294	0.043488	-0.00946	0.029449	-0.00351	-0.089874	-0.033417	0.19012	0.011902	0.1033	0.11917	0.058594	-0.004425	-0.004272	-0.000916	0.23743	-0.039825	0.000153	-0.00824
28.862	0.009155	0.13519	-0.084076	-0.002594	0.002441	-0.033264	-0.039825	0.001068	0.02655	-0.029449	0.005341	-0.021362	0.016327	-0.042114	-0.001068	-0.004578	0.036774	-0.021973	0.03479	-0.020599	0.08667	0.080872	0.16403	-0.11948	0.14511	0.006104	-0.061798	-0.007172	1.198	-0.11505	0.002594	-0.013275
28.863	0.008392	0.12009	-0.13657	0.005646	-0.002441	-0.041199	-0.039825	0.002594	0.026398	-0.015259	0.006409	-0.014496	0.016937	-0.1535	-0.028839	-0.012512	-0.014648	0.059509	0.16937	0.075073	-0.029449	0.085449	0.070801	-0.4921	0.1416	-0.036774	0.019836	-0.007782	-0.096283	-0.10193	-0.001526	-0.01358
